<svg width="150" height="150" viewBox="0 0 100 100" fill="none" xmlns="http://www.w3.org/2000/svg" xmlns:xlink="http://www.w3.org/1999/xlink">
	<defs>
		<clipPath id="clip4_3">
			<rect id="icon3" width="150" height="150" fill="white" fill-opacity="0"/>
		</clipPath>
	</defs>
	<g clip-path="url(#clip4_3)">
		<path id="path" d="M91.03 57.3C83.13 63.66 71.69 73.49 61.52 74.91C54.98 74.6 48.74 71.49 42.09 72.02C30.43 71.93 21.48 87 9.66 81.7C21.37 62.48 48.89 77.15 62.31 54.04C63.91 50.85 60.71 50.85 60.19 50.85C67.44 48.39 91.64 30.69 81.46 26.92C81.46 26.92 95.29 17.88 87.84 14.16C81.46 10.44 63.91 16.82 63.91 16.82C61.82 7.77 35.43 24.36 35.73 25.33C35.73 25.33 35.73 22.14 33.6 23.2C3.28 42.34 14.98 63.61 14.98 63.61C14.98 63.61 45.29 25.86 71.34 21.07C44.34 31.78 6.96 81.14 6.96 81.14C6.96 81.14 6.27 82.07 6.11 82.31C5.95 82.56 6.01 83.14 6.01 83.14C6.01 83.14 6.3 84.25 6.87 84.66C18.53 92.23 28.85 79.22 39.58 76.35C57.01 74.94 60.46 85.08 78.4 71.71C84.22 68.04 89.62 63.7 93.5 57.95C94.95 55.82 92.93 55.61 91.03 57.3Z" fill="#387BFF" fill-opacity="1.000000" fill-rule="nonzero"/>
	</g>
</svg>
