<?xml version="1.0" standalone="no"?><!DOCTYPE svg PUBLIC "-//W3C//DTD SVG 1.1//EN" "http://www.w3.org/Graphics/SVG/1.1/DTD/svg11.dtd"><svg t="1718059727077" class="icon" viewBox="0 0 1036 1024" version="1.1" xmlns="http://www.w3.org/2000/svg" p-id="1012" width="202.34375" height="200" xmlns:xlink="http://www.w3.org/1999/xlink"><path d="M368.9472 412.352V972.8H82.5088A24.9088 24.9088 0 0 1 57.6 947.8912V412.3648h311.3472z m49.8176 0l560.4352 0.0128v535.5264A24.9088 24.9088 0 0 1 954.2912 972.8H418.7648V412.352zM954.2912 51.2c13.76 0 24.9088 11.1488 24.9088 24.9088v286.4384h-921.6V76.1088C57.6 62.336 68.7488 51.2 82.5088 51.2h871.7824z" fill="#A1A0ED" opacity=".4" p-id="1013"></path><path d="M418.7648 412.3648H979.2v535.5264A24.9088 24.9088 0 0 1 954.2912 972.8H418.7648V412.3648z" fill="#6260E1" p-id="1014"></path><path d="M368.9472 412.3648H57.6v535.5264C57.6 961.664 68.7488 972.8 82.5088 972.8h286.4384V412.3648z" fill="#A1A0ED" p-id="1015"></path></svg>