<?xml version="1.0" standalone="no"?><!DOCTYPE svg PUBLIC "-//W3C//DTD SVG 1.1//EN" "http://www.w3.org/Graphics/SVG/1.1/DTD/svg11.dtd"><svg t="1718061433747" class="icon" viewBox="0 0 1024 1024" version="1.1" xmlns="http://www.w3.org/2000/svg" p-id="9788" xmlns:xlink="http://www.w3.org/1999/xlink" width="250" height="250"><path d="M742.4 896v-56.32a76.8 76.8 0 1 0-51.2 0v56.32h-153.6v-358.4h358.4v358.4h-153.6z m-204.8-768h358.4v153.6h-56.32a76.8 76.8 0 1 0 0 51.2h56.32v153.6h-358.4v-358.4z m-409.6 614.4h56.32a76.8 76.8 0 1 0 0-51.2H128v-153.6h358.4v358.4h-358.4v-153.6z m0-614.4h153.6v56.32a76.8 76.8 0 1 0 51.2 0V128h153.6v358.4h-358.4v-358.4z" fill="#387bff" p-id="9789"></path></svg>